<mxfile host="app.diagrams.net" modified="2023-05-11T20:22:14.348Z" agent="Mozilla/5.0 (Windows NT 10.0; Win64; x64) AppleWebKit/537.36 (KHTML, like Gecko) Chrome/113.0.0.0 Safari/537.36" etag="cjxAZDw3diIKLFzMiasL" version="21.2.9" type="github">
  <diagram name="Page-1" id="74e2e168-ea6b-b213-b513-2b3c1d86103e">
    <mxGraphModel dx="989" dy="552" grid="1" gridSize="10" guides="1" tooltips="1" connect="1" arrows="1" fold="1" page="1" pageScale="1" pageWidth="1100" pageHeight="850" background="none" math="0" shadow="0">
      <root>
        <mxCell id="0" />
        <mxCell id="1" parent="0" />
        <mxCell id="77e6c97f196da883-1" value="CIM ODONTOLOGICO DIGITAL | LID" style="swimlane;html=1;childLayout=stackLayout;startSize=20;rounded=0;shadow=0;labelBackgroundColor=none;strokeWidth=1;fontFamily=Verdana;fontSize=8;align=center;" parent="1" vertex="1">
          <mxGeometry x="70" y="40" width="1185" height="520" as="geometry" />
        </mxCell>
        <mxCell id="77e6c97f196da883-2" value="CONSULTORIO" style="swimlane;html=1;startSize=20;" parent="77e6c97f196da883-1" vertex="1">
          <mxGeometry y="20" width="160" height="500" as="geometry" />
        </mxCell>
        <mxCell id="77e6c97f196da883-8" value="&lt;font style=&quot;font-size: 14px;&quot;&gt;ESCANEO&lt;/font&gt;" style="rounded=1;whiteSpace=wrap;html=1;shadow=0;labelBackgroundColor=none;strokeWidth=1;fontFamily=Verdana;fontSize=8;align=center;" parent="77e6c97f196da883-2" vertex="1">
          <mxGeometry x="30" y="200" width="100" height="60" as="geometry" />
        </mxCell>
        <mxCell id="LKTtRaCDdOnd-94804fj-1" value="" style="shape=image;verticalLabelPosition=bottom;verticalAlign=top;imageAspect=0;aspect=fixed;image=data:image/png,iVBORw0KGgoAAAANSUhEUgAAAOEAAADhCAMAAAAJbSJIAAAAflBMVEUqctH///8AZs4kb9AUas8gbtAYa88NaM4AZM0GZ87M2/NLhdfy9vxGg9b5/P6Ytuawx+yFqeLA0u/j6/jR3/RwnN47fNRXjdl4oN+sxOulv+lql9ze5vahuufG1vFTidi5ze5hkdoud9Pn7/mRseXz+P2SseSIq+J3n98/ftSao7fjAAAIHklEQVR4nO2dW5uqIBSGQQTSykOZWU1ZNjW7//8Ht2ZTVh6hBhcz7603fA+ygMW3AOE6RrbnzubjEPWTcDyfuZ49qtWAKr84m6+YcsYIUS2kBkIY4zT+2jidFdoR4qzP2ooQxlFkd1HobE8GVd3sjlBjvC3tyDKFXsih9F4RwkOvlcLpEKS+DGLF02aFazCjrwzC1g0KD3NTdSMlMeeHOoU2ghZgnqHIrlbogR2BRQj3qhS6hurGvQjDLVfoWqpb9jIst0yhp0sPZhjes8INV92ql8InjwpH8IPoPXT0oHConcL4XqELfaJ/xnSLCqdMdXveAJsWFM51+0cz6PymcKLTRHHDmFwVnnRYrD1DTt8Kt3pNhTfOk2KmcKhnF6adGOcKg4HqlryNQXBW6OsYSHOonyl0VDfjrTipQs2W3PeYm1Shxj/p+TdFONY1kmak0RSNdFyS3qAjZOs8DNNJ30ae3n3IPHTUOdCkf+kRrXQONGmoWaG55grn6KS6DW9mjBLVTXgzffUg/PHjEGpyY5BhwPE3dICxU+TZ+8wn4Ew3613CtZpjCU+OD4fnBzui2qyUiDme4BIOa6SHRpaU6stwXB0GpBEdqgTis21FdQMlIWxboy/jCPtUmaCgQSDGHuQjLZLsGwViHMDtRYLaCMTYBhtSWfMvmrMAGm6MMhdgOT7IXqSz1gKxE4KcF+ut1fcEADvRXHQQiHEEbyGedBKI9+CO7zp2IcBOpNXW/3Kgzfs06igQ3Dk6r6psqOYILJx2mSpyAlArcLLrLBDYSTr77K4Q1kA0m/a9ZYA6ShcINFmdiupmd8D6EFAIarNvPJcWNfMByf1otNvcPwAp1Aj9paD8j7xt/gJsJ/KNkEIbzhbqucKvHRGYCUNga3HmACZfk7unBfgA04lMZELM2ELZCHdOYlxZA5n3yVBUIV4CkWgIzflnFjB+1C4Z70c2FMQ+yhSNNSn7IYRtBl2JK8T4cwBgYjQqDQptCMYAluGkzqLQzLrJb0MIZRlUWXdfavuEORxppRmFMJOcdv5xuXSP/04olfmj0r4xfTmJ+OCW3hFDTHPuBoWM7OFjuUKmiq7kbnXr2+FMdoOHjqRGuCxJIYwWY0OBRv4lKzFreoz4dbARtqrcXQc7BRYrLjHxF0QGy2icsMy4OazNHgQKLFbsJDHzC+D9fGQlbFndnsNHyr77KU4N09PPbzF5XJW18UJuWZwm49VSLHVVhrP6+T+VWOHiuZ/2C/Q9FaRTt8X8oOuxcRW+glUtMUm0LQ7Ij8WKPrSDWuGnUCL5mU8lKz5qUhT77nq5WPsxYmbJIoQw9u81GiNVe5PmhSS1/JfE3j5fccGo9EIoZaRaRi1m+ILAGvQ620MsXz6s9jx9zkLp0djv/7SNA76RZb87MV0Jidg5ivTfvSK9Lem/88GUytalI7H/mWVT8Izum1mPp/0LkimCCYCEpCV4lpyzB5BVRoaYIeACBOcDSWQSACCccuyfhEIYPrKBxPoNxp0sQha5C/tebzC+GUhsMw4gHEgDcYEY/ynsBb9AofbjUMyMmwMkloobc2DMh1KWDhhrGt3XpZbU3gLAZYhyRgAA+0Mul8bo/x6fSWbbVn0fhkzScdT7XBvfSR5e9D1fKm3F6XnOm7D2l2pU0O9zC93PnrQ/PzQTvc+AKYN8jp97MWidF8OIwHoxrn4a148q/TT0NfoU+GlaeaJ46EL1RLXytZmzCVhfW5030Tp7E4ezBWBvYrO/dArbX6q9R/g1Pm9n6vnzE7IGA7Trmc/beoVXfzsL08nl8mw0ZavKn0KBV/819Rbm/Y9HB/NJSb2RknqLF9TMJKU1MxzNvGlhbhkpqpmRrXtyltV1T9Rk6Fz3tP6K5omquifJ2rVt0hA18tq1ulXum5GrP9zvrL5nO+VqSJeDvmcCJe4cyDow7n0uV64LAxDvYkvU48N4F1viTgUgryqbNRuKehYwBIrHGbvvhw0XhO+nmUKIMRmidww5YN5zrdvX19HnRPU9+t/1pf99bWJ37vX/3P2GmFULgDnkitjdl3BG4W+4v1T/O2j1v0eYieRJAc0Vv+E+b6E72SENQ6FQ48JSKLC5gDTfZ2j/vsUveKNE/3dmfsFbQfq/99TtBtMxsECaY7W3iH5C2lYUaP12ngdtpvim7fuHG4iDMEf7NyzbvUM6gduDGc036SyBBpkbRlS3Qp1COO1tovZNZyUXx74c7d/lRvq/rX6GsVPk2ftsTDrTzXqXcIhL7XoINbkxyLC4Dk+q/9EzEtUNeDMJOqluwps5IWiJvo6QGK00V7hCn/rNXUXoEXl6rT4eYR4CcUeIONxGI83/0hECd2rSCRJjhL90HojsK1W40Xkg8k2qENoJdDecVCEsn0Q3qI8zhQG8w6+2DIKzQlhWkC6cPfeZQki+wU7wyUUhBuNP7kbuSD8rnACpEuhIflHxWWGvH8UQ5lIjmSuc6riuudSF5AqxC/4M5QnzUqh8UYhj3f5TGuN7hSOkVzwlV7vIt0Js6/Wfmld74VUh3uo0ZRi3w9ubQryGfOZ+T/FVgoJC7OrSi0bxvoeiQuzpsUDld3amO4V4AuNN6VoovS89u1eI9zH0kGrGDz6fB4VZ7QfkbqT06eWTJ4V4ulPxMu1LIMbu2aj1rBDjzRhE1fwjhI/LqgjKFKYRZ2hA+1epMSz39pQrTPsxIlzd3SkdIZSTqKp4t0ohxoeJH1POGOmzTkIY4zT2y+5ealSYMbI9dzYfh6qFVBCO5zPXs+tN5/8BoG50GYJB93gAAAAASUVORK5CYII=" vertex="1" parent="77e6c97f196da883-2">
          <mxGeometry x="65" y="245" width="30" height="30" as="geometry" />
        </mxCell>
        <mxCell id="LKTtRaCDdOnd-94804fj-3" style="edgeStyle=orthogonalEdgeStyle;rounded=0;orthogonalLoop=1;jettySize=auto;html=1;entryX=0.541;entryY=0.023;entryDx=0;entryDy=0;entryPerimeter=0;" edge="1" parent="77e6c97f196da883-2" source="LKTtRaCDdOnd-94804fj-2" target="77e6c97f196da883-8">
          <mxGeometry relative="1" as="geometry" />
        </mxCell>
        <mxCell id="LKTtRaCDdOnd-94804fj-2" value="&lt;font style=&quot;font-size: 14px;&quot;&gt;PREPARACIÓN&lt;/font&gt;" style="rounded=1;whiteSpace=wrap;html=1;shadow=0;labelBackgroundColor=none;strokeWidth=1;fontFamily=Verdana;fontSize=8;align=center;" vertex="1" parent="77e6c97f196da883-2">
          <mxGeometry x="30" y="80" width="110" height="60" as="geometry" />
        </mxCell>
        <mxCell id="77e6c97f196da883-4" value="LABORATORIO" style="swimlane;html=1;startSize=20;" parent="77e6c97f196da883-1" vertex="1">
          <mxGeometry x="160" y="20" width="160" height="500" as="geometry" />
        </mxCell>
        <mxCell id="LKTtRaCDdOnd-94804fj-5" value="&lt;font style=&quot;font-size: 14px;&quot;&gt;PEDIDO&lt;/font&gt;" style="rounded=1;whiteSpace=wrap;html=1;shadow=0;labelBackgroundColor=none;strokeWidth=1;fontFamily=Verdana;fontSize=8;align=center;" vertex="1" parent="77e6c97f196da883-4">
          <mxGeometry x="30" y="200" width="100" height="60" as="geometry" />
        </mxCell>
        <mxCell id="LKTtRaCDdOnd-94804fj-22" style="edgeStyle=orthogonalEdgeStyle;rounded=0;orthogonalLoop=1;jettySize=auto;html=1;exitX=1;exitY=0.5;exitDx=0;exitDy=0;entryX=0;entryY=0.5;entryDx=0;entryDy=0;" edge="1" parent="77e6c97f196da883-4" source="LKTtRaCDdOnd-94804fj-19" target="LKTtRaCDdOnd-94804fj-21">
          <mxGeometry relative="1" as="geometry" />
        </mxCell>
        <mxCell id="LKTtRaCDdOnd-94804fj-19" value="" style="shape=image;verticalLabelPosition=bottom;verticalAlign=top;imageAspect=0;aspect=fixed;image=data:image/png,iVBORw0KGgoAAAANSUhEUgAAAOEAAADhCAMAAAAJbSJIAAAAflBMVEUqctH///8AZs4kb9AUas8gbtAYa88NaM4AZM0GZ87M2/NLhdfy9vxGg9b5/P6Ytuawx+yFqeLA0u/j6/jR3/RwnN47fNRXjdl4oN+sxOulv+lql9ze5vahuufG1vFTidi5ze5hkdoud9Pn7/mRseXz+P2SseSIq+J3n98/ftSao7fjAAAIHklEQVR4nO2dW5uqIBSGQQTSykOZWU1ZNjW7//8Ht2ZTVh6hBhcz7603fA+ygMW3AOE6RrbnzubjEPWTcDyfuZ49qtWAKr84m6+YcsYIUS2kBkIY4zT+2jidFdoR4qzP2ooQxlFkd1HobE8GVd3sjlBjvC3tyDKFXsih9F4RwkOvlcLpEKS+DGLF02aFazCjrwzC1g0KD3NTdSMlMeeHOoU2ghZgnqHIrlbogR2BRQj3qhS6hurGvQjDLVfoWqpb9jIst0yhp0sPZhjes8INV92ql8InjwpH8IPoPXT0oHConcL4XqELfaJ/xnSLCqdMdXveAJsWFM51+0cz6PymcKLTRHHDmFwVnnRYrD1DTt8Kt3pNhTfOk2KmcKhnF6adGOcKg4HqlryNQXBW6OsYSHOonyl0VDfjrTipQs2W3PeYm1Shxj/p+TdFONY1kmak0RSNdFyS3qAjZOs8DNNJ30ae3n3IPHTUOdCkf+kRrXQONGmoWaG55grn6KS6DW9mjBLVTXgzffUg/PHjEGpyY5BhwPE3dICxU+TZ+8wn4Ew3613CtZpjCU+OD4fnBzui2qyUiDme4BIOa6SHRpaU6stwXB0GpBEdqgTis21FdQMlIWxboy/jCPtUmaCgQSDGHuQjLZLsGwViHMDtRYLaCMTYBhtSWfMvmrMAGm6MMhdgOT7IXqSz1gKxE4KcF+ut1fcEADvRXHQQiHEEbyGedBKI9+CO7zp2IcBOpNXW/3Kgzfs06igQ3Dk6r6psqOYILJx2mSpyAlArcLLrLBDYSTr77K4Q1kA0m/a9ZYA6ShcINFmdiupmd8D6EFAIarNvPJcWNfMByf1otNvcPwAp1Aj9paD8j7xt/gJsJ/KNkEIbzhbqucKvHRGYCUNga3HmACZfk7unBfgA04lMZELM2ELZCHdOYlxZA5n3yVBUIV4CkWgIzflnFjB+1C4Z70c2FMQ+yhSNNSn7IYRtBl2JK8T4cwBgYjQqDQptCMYAluGkzqLQzLrJb0MIZRlUWXdfavuEORxppRmFMJOcdv5xuXSP/04olfmj0r4xfTmJ+OCW3hFDTHPuBoWM7OFjuUKmiq7kbnXr2+FMdoOHjqRGuCxJIYwWY0OBRv4lKzFreoz4dbARtqrcXQc7BRYrLjHxF0QGy2icsMy4OazNHgQKLFbsJDHzC+D9fGQlbFndnsNHyr77KU4N09PPbzF5XJW18UJuWZwm49VSLHVVhrP6+T+VWOHiuZ/2C/Q9FaRTt8X8oOuxcRW+glUtMUm0LQ7Ij8WKPrSDWuGnUCL5mU8lKz5qUhT77nq5WPsxYmbJIoQw9u81GiNVe5PmhSS1/JfE3j5fccGo9EIoZaRaRi1m+ILAGvQ620MsXz6s9jx9zkLp0djv/7SNA76RZb87MV0Jidg5ivTfvSK9Lem/88GUytalI7H/mWVT8Izum1mPp/0LkimCCYCEpCV4lpyzB5BVRoaYIeACBOcDSWQSACCccuyfhEIYPrKBxPoNxp0sQha5C/tebzC+GUhsMw4gHEgDcYEY/ynsBb9AofbjUMyMmwMkloobc2DMh1KWDhhrGt3XpZbU3gLAZYhyRgAA+0Mul8bo/x6fSWbbVn0fhkzScdT7XBvfSR5e9D1fKm3F6XnOm7D2l2pU0O9zC93PnrQ/PzQTvc+AKYN8jp97MWidF8OIwHoxrn4a148q/TT0NfoU+GlaeaJ46EL1RLXytZmzCVhfW5030Tp7E4ezBWBvYrO/dArbX6q9R/g1Pm9n6vnzE7IGA7Trmc/beoVXfzsL08nl8mw0ZavKn0KBV/819Rbm/Y9HB/NJSb2RknqLF9TMJKU1MxzNvGlhbhkpqpmRrXtyltV1T9Rk6Fz3tP6K5omquifJ2rVt0hA18tq1ulXum5GrP9zvrL5nO+VqSJeDvmcCJe4cyDow7n0uV64LAxDvYkvU48N4F1viTgUgryqbNRuKehYwBIrHGbvvhw0XhO+nmUKIMRmidww5YN5zrdvX19HnRPU9+t/1pf99bWJ37vX/3P2GmFULgDnkitjdl3BG4W+4v1T/O2j1v0eYieRJAc0Vv+E+b6E72SENQ6FQ48JSKLC5gDTfZ2j/vsUveKNE/3dmfsFbQfq/99TtBtMxsECaY7W3iH5C2lYUaP12ngdtpvim7fuHG4iDMEf7NyzbvUM6gduDGc036SyBBpkbRlS3Qp1COO1tovZNZyUXx74c7d/lRvq/rX6GsVPk2ftsTDrTzXqXcIhL7XoINbkxyLC4Dk+q/9EzEtUNeDMJOqluwps5IWiJvo6QGK00V7hCn/rNXUXoEXl6rT4eYR4CcUeIONxGI83/0hECd2rSCRJjhL90HojsK1W40Xkg8k2qENoJdDecVCEsn0Q3qI8zhQG8w6+2DIKzQlhWkC6cPfeZQki+wU7wyUUhBuNP7kbuSD8rnACpEuhIflHxWWGvH8UQ5lIjmSuc6riuudSF5AqxC/4M5QnzUqh8UYhj3f5TGuN7hSOkVzwlV7vIt0Js6/Wfmld74VUh3uo0ZRi3w9ubQryGfOZ+T/FVgoJC7OrSi0bxvoeiQuzpsUDld3amO4V4AuNN6VoovS89u1eI9zH0kGrGDz6fB4VZ7QfkbqT06eWTJ4V4ulPxMu1LIMbu2aj1rBDjzRhE1fwjhI/LqgjKFKYRZ2hA+1epMSz39pQrTPsxIlzd3SkdIZSTqKp4t0ohxoeJH1POGOmzTkIY4zT2y+5ealSYMbI9dzYfh6qFVBCO5zPXs+tN5/8BoG50GYJB93gAAAAASUVORK5CYII=" vertex="1" parent="77e6c97f196da883-4">
          <mxGeometry x="40" y="180" width="30" height="30" as="geometry" />
        </mxCell>
        <mxCell id="LKTtRaCDdOnd-94804fj-21" value="" style="shape=image;verticalLabelPosition=bottom;verticalAlign=top;imageAspect=0;image=data:image/png,iVBORw0KGgoAAAANSUhEUgAAAOEAAADhCAMAAAAJbSJIAAAA5FBMVEX///+iR4qsW5f7/Pvk2eGgRIieWIuzaaCeRYbz8/OKPHVqLFr06/LOmL+/grBxQ2TV1ta0q7GmZpWfPoaaLn/69vmqV5WcNYLj0N2tXZj8+fv17vOnT5HFlbeaLX+7gavhytrXuM7s7Ozq2eXv4uvMosCxbJ7g4ODBjLLexdfUssqWIHrLoL/Rq8a5eqiwap2RP3t5NWeSWIJdGU1kKFWNPnjMzMy/u76AXnfBfK/PtcnCobq0iaipdJvFk7i8haySCXWXaImbdZGsjqR5I2SKW36um6mNa4N5Vm+eipiqpKiQdYlcxUKaAAAP3UlEQVR4nO2deXujNhPAg7d6yUG92cqI0zaEIz5x0qRJtkfSu9v2+3+fVyCwjW0JCYTt9PH8kzwhCP2YkTQajcTZ2UlOcpKTnOQkJznJSU5ykuMQ29GOUxxbBp7uT6LXr49TXqO5rzejc6Lu5+5xy+du5NSm9KK0iCSO1WOVOE7SKs68D3X4tJQvUS2r0+mg4xRcM8tSUyuLNGE+e4LvU0kpxy24jirW5Fyw19Hn3W5sHT8eEWTFGFGoNV7Mup+tQ9dbSKzP3ZmApd5gBb4X/RWCsBpvuE10hlvgoWssLEjtfu3wAdrzrnro6tYSlbe7mbxHDaaCtTjnAdQ+v7s2uJS4y9Hb2NHnQ9ezgXyeVdup1323GsSCul4VoD57p42QCFJnVQO/kxy6ks3ESqpaYvQ+B4qVqDM24IfkfTlrOyRhz6Ru3nUrzES9ZRJ+f+j6SZDvmUb6g3vo+jUW9weWmV78+O6NtIN+vGAQOj/9Bwh/Ys0wwv8EIWtEDL9pkTCNHblEUIsBIPRNyOhovmqJMCWz1DgZzeZYotkoiVULua1gom++onc1rRAiBFDSn/tBuIrc2roTev5spCouku1i7JkQuVAdmiFlgUHXglkMXbnP3Cchcq0kYjQKIuF8iGRqcn+EyI3nAVcM0/ZmqiLtwfsidJWFxxn5SkWLkCxj3Qsh7iNfA368TOy5KodxH4QIvXqCfKmEmFHG01snRIoV1Fyb1YYSmmPbhLh/8evhZWLGjU21ZUKE+uIreevi9Js6Ou0SumjcOHlgjJq1xjYJEXpripeK3W2kxhYJUWciJfvjzI6OkxApphS+VHyjQT3aIkSJgAtTKWb9FfaWCC132KwP3UJc1EVsiVBJmuUmbYsGalalHUL3VU4fsy5hzeB0K4TuSLYGUwnqtcU2CJElX4MZIjwSQhTL7EXXxa8z9MsnRJboVJBf6gz98gnhuDXAMzsR91GlE7oVK5LNRO8IV0g2IRryd6N6GHjjsUeLLe6UsXBTlK5DzkZom9EoUa00hKPG3f6Eu+32Re1UMqE74aHT/AQCt1iryJYvIBj5XLrUE8EqySV0Yw4+s2+5qLMR8rU6rqL2PQ5GTzkoYfWEKRh1aKEXPJl/47DWrpidSiV0o6rahW+QWSKCcWXYXxNzUGUSIrWqdr7qVi1IuFZlZGAupESZhFVDod7nCQ2iyrmz2CxDIiFy2S8/4A1hu8hjI05ElCiRsEKFApMfZLGjyLrIsC+PEHWYrTAQMS3ksp3bmcCIIY/Q7bOMVHT6ykbUBEqTaKUeo0qO6PwcWSxEW8B3k0bI7AHtkfCsB7ksF358AB0yPdKoxtIDYoXrBLxTaYSAER81ay08INZWAv5RXxYhshjVqRcHRIjROYeQN1tDFqHLeOETpV7uCFJlvDVZhJA+KdDqBuQtVshnxmumkgiRRW+GkwarO/TOJuA1U0mEjOFeZHTeKpbuvWm8MSlZOqQ3Q79mK8yKpce19JEcwv8p7ma8YXcx9BbTaF+YS+1Oba6GaFlI+R+bEChpyKiSkh7ndri79Z2EfWrlKt2aNJDn4vpXEqaSzlxZFUULakcjNiHfKpg+zHrMN2elfl9Wdz7CFLJj0YtECbWj4W0uFIFUb5c1HbPS0F0u3IQKUOhZyuiVVkTddc1C6MEth9rAsXEqa/XmJlya6656UKf3ZsNUWJf67myK843ccpUFCTPI7QReus/mN83Zok/Ktu3fQpt4tQgVAIgq19olfeokFDTaRahSe+m1WTA5rMNNqyaDMFfl+iCi0HwPvlGLKR6tdstJZzYsbCuvKWFBmb4+S6FVw35tSkj3JbJxyLJYdI0J0w42xaTPLLh9K6rQXVNMmMFVVbEZYY45aJGQ2onNYRWcNEJFmR6CMDK46iaHkK7D18aE1G56vk/CHq07yHqatMdluHy7JbvBYrXDveqwR63GDCpk893KT7CWsoaz8SeL3II7Ekgvep+EBrWxTNJqgFzSf13bcbgh+RVl4wbqaPEKj4JwzFcAvX6I6tMM90pI9bwDtxkiWND8UjvmK1kOIRzSitA560EteUQrWbP2SQhi+gyYz5ZoYlAHiwDtldCiznHGgyaAypRasMdZgiRCRiKN0cRMIT0Fyec0DjmECqBHE9/4hq3dMqCOhnZ/v4SQHhEOevUBAT1eqr/tmfCNHpzmHLd2FktPsgohr3lJslLGykz9QZ8x3J+ZvD2YJEJlSl/N1OO6SjToEe+zPm/zlkVI99twS6w5YACDkb/C7SvJIoSsVe5hve6UPtrjZjjlLUUWoTJgZE6Ebh07haxkDM7pr0xClpmeeTU6G8BKVHBU7hKlETLf+FkkPigOPNYr4y9HGqHCzoC2RJtijzpdSYW7J5VJCBlde5rEJNYUITMPMNwVvm+dECDmrtFwIYJosPf3cQahJBMyO/ezdLmbv1o9+nwzE16PTTIhgOwNQTa3rwwrEsZFVCiTUOlVbJjRZwOe4iA9gEgk5IxfyCdkud9ExqDy7YNe5f5F/tFeNqFiVO4o0fuAaaoAVu+cCsXCd1IJmW5ILt6bQWXEGu5XbwsS9HKlEioGc5gmogdxz9gxngHYM0bVb+jMFHSP5BIqA64tsto8dg246vIBgAZECdcXVByhbkY+YXVnQ0QP/FHSgYYxGAwMCNSk73PusZyJTlMkE1b4butiO1pgmp7nmWagcW+t9QT8tXYIFaPJsVCV4ohHX6UTAkPuoSYlEfXfWyFUYNzGoRhE5jViBfIJ8ZDRFqKYM9MeoUBvIyYmd/SpbULGsn4TCTmX0/ZByOGgiovJ9mj3TAgYKzU1pV5EsjVCPGbwHK4gIIFVd2mgJcJ0zUHmQUNj+oTkYIRVwSQh8UUCM3sjVIyEYy7EI3a/AWCbhAoEUkaNUDiavDdC3N+IfN2NIj5qlq/SKiFWo9rweEh9CJsBtk2owAFPZIImzqQpX/uEuMNBUc3z2+zxolEyzr4IcWtc1Dqq1RzW9NM2Ht8+YRrlBRPBLsfxhlMZfHsiTBlR3+T3AEI/7snh2xthFs1OON3xoN9p3sGsHrwvQizQmKpRwPzisq55Izht4sJsyT4JlRTSUN8m3s5j6HVvHCWuIRVP2Tuhki6eQcVdJKO57wVh+kH0MAzGfvSWqK4CZeMphyDMngpgFu+eEhn0DKMNOPKsgxDuU06EJ8LjlxNhi4TYy1HkuS70xxyMELiR6TVK5Od8zsEISZa62roWD0aY521wJ6TXf9DBCMmKv2hmRY0HnQhbe/CJUNqD9ky43OD7nglBFoLYNRsCUOks4nhhIXx1ixBkt4CdAQxyDdYJbkgnhIbVj8beeN63NlfEDBR52RChBf4wT5peEkJD6Ue+N5704y0O7P2MZmPPm8wS8VU22VlfA2tcxA2dMVof7GBvthb91oNFuEYIBsgvrjqmNS09tgfmml1cS7iycFsjhJ3yMsV45XhCdWfkmxBCq7xk7K25OnDj8BvR1WC5GbRbH3kyi6rCt92h/Yxwe6VRiwuHFS4213Y0sQRTqXneO1Z9w06GSE2USgkNa/uilm/pg9b2wo4u5K9LJIRJcZ+jacsvOTikgywqF8yTODJX+sSEK3od31f8ri3SRwNl7doqg1Fk74bMHSX52w6jBCF1VLQeH7/wIvveHAIDQgMulsmkqQ5zM9TmiYXUoZ/jBz/jQo08I9eZDC1kDed5KxA5qUHirqA8Zu+7eOzC4xfMP4qkJ8tfTZAPknB5XLfZg/lHEj3VIPcV+EOowDxFLrTSMvFFlL8NgR0X0giBSt7vfLnkB/NdvB7IVWiusl9BoRyzl2dr+suRDg4IRoht1CtKWN5HiuI9MkImYZ6u5625MnkD0xduhlra1F20THO6IFVeWwuFxN3Rh8YiK0Bba3aAlMV7dItMwny7YGlXc/7C++QrZWbJj8vPEjB/zv9n3ezytLhJvtO5lHSZbwcYc/uz0ginGYVWSpCEHVIbaxsCK5hg/5yZZDnvEHQyJXq5KZeP9CInZdh73wecW91Gjmsvq41JCMtd/NLzznrgcbkwkGEHRmaRTjnQkad2ci9zSCN0szs2zm6aZhQhUWWnTEg+FmHC7Idffg6hCMm1sl0Up/3sfbc6B2H59AigZr2IRyjGByP8ln8vd3bHRgdgZFbqoezapNwOyeFBfWKJZunoQ6CQPxpeZqUblk8aJ39P860kwikZGUptJj+GwAeZLsp7zqZk0LPIT6cDSvflPQ1pcuXJBHmQw9/TMAlvf+HXob9tpkQHZ2/5tfUzc3InVjPyffx+aSpJ/j8yiJ69Upn9HQbBJPzllkF48+sdb0G51WlrL9wY2fmfiPOlvy5NC+aHR0cGICa8rqjcU3BiSA5nskcrnFy9Z7w7bhXl7tcbBuGH3+7OOQsqHO+Vh2Xkc14fgvz0T/ttmrqXAE4TLX8fQOmRa6FbYBi5H4c9hPzoImexjHVAYhb8rvf53W8fGIQXT7/zEipG/oVcJ0ndZwiLM47TwRy6eYnByHJda5g7pZlyiqOg0u2lqSjFLNOFq8BA382ugfxUYZt/hnj++9MFnfDs4vae20xBMQuyvVmSDOfFBClzZXrLZCEnMJeBAD9zxZd5tl40TIaRmc8ss5a5PG0DzyuTZFZ8W2/MPz+8u7+9oAOeXVz8csmtRIiWM1RdX/46Jm97V7pw7qjC1UlCa/cROwTGrmsaf0rf+eUfFyzCDzfP/ErENrUdcShy0EFvc5OJPSkcLwi30/qKmVYxgVqXQCBr+O7+mdHRpA3x+g9+JeIecrM685XXbPRL/NpoNVuEWx93WgXp4NYBpmOBNUeswmtWM0wb4p/33N1pGvmL1vO5wuG6fwxRf2Vnc2s9ORYqpbPC1umxhktZxlX73cuAd/d/MpthaqbXLwJ2ijUFR4Hm4DbjhN5mBiUweov+2DTHUdLbTP6FxptH7tO8t437oJF4IbkWDAVO10ht9OWaaaSZEp8fLkUQgWFYi+FwuEC7MkRhurV5sCs0n94X4/tiZGwzwB7KyrQMobTo88uH5woVpkq8/etKoClmlSVjl9A9VffVKfP88uqv2yoVYiXePL2IIh6HYMCXp5sqFabd6e3zxyshQz0Oubu8+lhto8ROr58fMOI7UyMGfPhU2c0sm+Knj4/3370nxPPv7h8/fuJohEQusBZfHq5EBsbDCh4Grx5enq85GuEK8emvh8d7bKrHD3l+fneZAj4JAGaGev3py+Pj1f3ld5jyiOXuO4z3+Pjl0zW3ieaIF7fXz3+njFf395fHK/f3Vynf38/Xt2x3dBcittTnf748PjymmEcquG4Pj3/885xaqCAgYbzFkJ/+ffny8Vjly8u/nzDebR2+JeP1E6Y8Vnl+erquz0cYMeQtxjxSwXW7uWjARyA/YMyjlQ+MuNpJTnKSk5zkJCc5yUnekfwfYEhOzdbz8lsAAAAASUVORK5CYII=" vertex="1" parent="77e6c97f196da883-4">
          <mxGeometry x="90" y="180" width="30" height="30" as="geometry" />
        </mxCell>
        <mxCell id="77e6c97f196da883-5" value="PROCEDIMIENTO" style="swimlane;html=1;startSize=20;" parent="77e6c97f196da883-1" vertex="1">
          <mxGeometry x="320" y="20" width="320" height="500" as="geometry" />
        </mxCell>
        <mxCell id="LKTtRaCDdOnd-94804fj-9" value="&lt;font style=&quot;font-size: 14px;&quot;&gt;RESTAURACIONES&lt;br&gt;DENTALES&lt;br&gt;&lt;/font&gt;" style="rounded=1;whiteSpace=wrap;html=1;shadow=0;labelBackgroundColor=none;strokeWidth=1;fontFamily=Verdana;fontSize=8;align=center;" vertex="1" parent="77e6c97f196da883-5">
          <mxGeometry x="130" y="100" width="150" height="60" as="geometry" />
        </mxCell>
        <mxCell id="LKTtRaCDdOnd-94804fj-13" value="&lt;font style=&quot;font-size: 14px;&quot;&gt;MODELOS&lt;br&gt;&lt;/font&gt;" style="rounded=1;whiteSpace=wrap;html=1;shadow=0;labelBackgroundColor=none;strokeWidth=1;fontFamily=Verdana;fontSize=8;align=center;" vertex="1" parent="77e6c97f196da883-5">
          <mxGeometry x="160" y="305" width="90" height="60" as="geometry" />
        </mxCell>
        <mxCell id="LKTtRaCDdOnd-94804fj-14" value="&lt;font style=&quot;font-size: 14px;&quot;&gt;GUÍAS&lt;br&gt;QUIRÚRGICAS&lt;br&gt;&lt;/font&gt;" style="rounded=1;whiteSpace=wrap;html=1;shadow=0;labelBackgroundColor=none;strokeWidth=1;fontFamily=Verdana;fontSize=8;align=center;" vertex="1" parent="77e6c97f196da883-5">
          <mxGeometry x="145" y="200" width="120" height="60" as="geometry" />
        </mxCell>
        <mxCell id="LKTtRaCDdOnd-94804fj-15" value="&lt;font style=&quot;font-size: 14px;&quot;&gt;ADITAMENTOS&lt;br&gt;&lt;/font&gt;" style="rounded=1;whiteSpace=wrap;html=1;shadow=0;labelBackgroundColor=none;strokeWidth=1;fontFamily=Verdana;fontSize=8;align=center;" vertex="1" parent="77e6c97f196da883-5">
          <mxGeometry x="130" y="400" width="150" height="60" as="geometry" />
        </mxCell>
        <mxCell id="LKTtRaCDdOnd-94804fj-40" style="edgeStyle=orthogonalEdgeStyle;rounded=0;orthogonalLoop=1;jettySize=auto;html=1;entryX=0;entryY=0.5;entryDx=0;entryDy=0;" edge="1" parent="77e6c97f196da883-5" source="LKTtRaCDdOnd-94804fj-23" target="LKTtRaCDdOnd-94804fj-9">
          <mxGeometry relative="1" as="geometry">
            <Array as="points">
              <mxPoint x="100" y="230" />
              <mxPoint x="100" y="130" />
            </Array>
          </mxGeometry>
        </mxCell>
        <mxCell id="LKTtRaCDdOnd-94804fj-41" style="edgeStyle=orthogonalEdgeStyle;rounded=0;orthogonalLoop=1;jettySize=auto;html=1;entryX=0;entryY=0.5;entryDx=0;entryDy=0;" edge="1" parent="77e6c97f196da883-5" source="LKTtRaCDdOnd-94804fj-23" target="LKTtRaCDdOnd-94804fj-13">
          <mxGeometry relative="1" as="geometry">
            <Array as="points">
              <mxPoint x="100" y="230" />
              <mxPoint x="100" y="335" />
            </Array>
          </mxGeometry>
        </mxCell>
        <mxCell id="LKTtRaCDdOnd-94804fj-42" style="edgeStyle=orthogonalEdgeStyle;rounded=0;orthogonalLoop=1;jettySize=auto;html=1;entryX=0;entryY=0.5;entryDx=0;entryDy=0;" edge="1" parent="77e6c97f196da883-5" source="LKTtRaCDdOnd-94804fj-23" target="LKTtRaCDdOnd-94804fj-14">
          <mxGeometry relative="1" as="geometry">
            <Array as="points">
              <mxPoint x="145" y="230" />
            </Array>
          </mxGeometry>
        </mxCell>
        <mxCell id="LKTtRaCDdOnd-94804fj-43" style="edgeStyle=orthogonalEdgeStyle;rounded=0;orthogonalLoop=1;jettySize=auto;html=1;entryX=0;entryY=0.5;entryDx=0;entryDy=0;" edge="1" parent="77e6c97f196da883-5" source="LKTtRaCDdOnd-94804fj-23" target="LKTtRaCDdOnd-94804fj-15">
          <mxGeometry relative="1" as="geometry">
            <Array as="points">
              <mxPoint x="100" y="230" />
              <mxPoint x="100" y="430" />
            </Array>
          </mxGeometry>
        </mxCell>
        <mxCell id="LKTtRaCDdOnd-94804fj-44" value="SI" style="edgeLabel;html=1;align=center;verticalAlign=middle;resizable=0;points=[];" vertex="1" connectable="0" parent="LKTtRaCDdOnd-94804fj-43">
          <mxGeometry x="-0.9459" relative="1" as="geometry">
            <mxPoint as="offset" />
          </mxGeometry>
        </mxCell>
        <mxCell id="LKTtRaCDdOnd-94804fj-23" value="&lt;font style=&quot;font-size: 8px;&quot;&gt;¿ES CORRECTO EL PEDIDO?&lt;/font&gt;" style="rhombus;whiteSpace=wrap;html=1;" vertex="1" parent="77e6c97f196da883-5">
          <mxGeometry x="-10" y="192.5" width="90" height="75" as="geometry" />
        </mxCell>
        <mxCell id="77e6c97f196da883-6" value="DISEÑO" style="swimlane;html=1;startSize=20;" parent="77e6c97f196da883-1" vertex="1">
          <mxGeometry x="640" y="20" width="190" height="500" as="geometry" />
        </mxCell>
        <mxCell id="LKTtRaCDdOnd-94804fj-48" value="" style="shape=image;verticalLabelPosition=bottom;verticalAlign=top;imageAspect=0;image=data:image/webp,UklGRg4gAABXRUJQVlA4WAoAAAAIAAAAxwAAvwAAVlA4TC0fAAAvx8AvAFXpff9/uSTL+ccWjMu8l3S1zMzMzMzMzMzMzMxwsZZ3W2WmOvR7fudUb2S2R8fskUoqY+qFX2gtb5lGy51NuC0tPdnyZnNaMvcfsFkZWlp6zAyRVcZHuhSWJqvkqsw5+yQ9Cyc0jWS2HzOzfaIOTdPSDX9mKPP8jNkxjNRjtktq1de0zBuZe6TbZrZDGsl8MkuPFrOSShfS0Wjyx3jhCRf/gFYvZmaGMox+0kgd10imx7RcZhxNfKV6pBuv1NEx95jbUDrLvJ359CVDSzOmHsctlZntziy1WvrdyMxszzha3mx1pAnb2Go9WoxuutRS3dA0OtLybktlOtKGxxivaqmliSw9uuFEj9TSYxQsBUBqS/vf1iEciRCJiIiICBGvOO+Zf4jKtkWxxzRnP/8szY9IiERIzCKdTSJCIiIiQiLEIyGz9V8WbCtxLR3gOSXpTCoi8fb3sb/5V9+LdgOuhm5SwG7Q7QZ9DbGbBCLkWHA5mnQ5qhQU5Vhg4SN/Pjbwx1HsmbTmItb3xSx5Nk0fT5mPDgJjI/fNCPNOqExn0urzGsU1XPZq3ld7MzyXXh5DWpyReCbbTXIe5+RY0nI0KbwiuJTPo6sRsXml8XEJWx4TLN5Im1nO2QO68jHAErS1cnk7u1Hf0ss4h5TDRyptN05x1Cs44nqE9p1IMYqzu+z57tAdDVzOomm6J6Ov1D8uYUmTs5FHjO8OveOQkM5oN2//TOI5cv0MavMqP14EFRcwfo8HZ+UYcOHmKfBwo7Gt8khUB1zQ/FV2B46RUKrdwneDS+boUthjtnvIziGEMB7nuwHvOBL/eMeV7ZUcMcI3N2i4N8cbj931GF3v5Gg4jmy906ttWrtBi0T9eYxCz3K+O/Dx/mw8zhmpxfJ0GfNkyrDFdWh8OtzYnMfJMUDQTXbHqkOkceYTnU2rBrVejfZem8bXIGxPRuAGXvthEDfu68m6l7N129T1IonX2gjhxZMo4ywY4etqh9Pg7liSj6d09VS4P5+hLmtnVyPJXgzPpNa2xKaPz2tLnUQxgzdq270Y0fx073ANaXJp2QnkqeEsWn0B4/tidn5J63RRMz+PpkarutNPaqucCnei1HODjtd0GVFyU7cYumGP6IhYJ4wxOidS6NjR78hV9RhSOMj1KL3BwCqLZNmFIBYte1LsoUGUvgblO+0RrZmtlcw8dXwFWkpn0evjKO4cRnVFNwXqy0KI0pnVui3Os/F4vJ+Hp2wN8QARJzPqGDC8onQZrJcBgiRQCCCCKdF8bRKfVm1tzmpjqMx9lfGSvxZjF7K+b9C2V3N50437Nq0JGQBk+jjFeK5oK7reZttmDdm2rbe16TXU1mabGUedcHI0fsctupPacBiCKseqF0IwySJpnVsvzIWsFsI8A26u7vILGd8HOZPeJC0QIui5gqAf4+Wlm3pCeVp+Bq05u15NXq/v4pZ8e5eyDpeyDw/5kJe0T2/vG17Myi9q5X0XMWQN9dUtu4x1uLwjruIk16Ssu7dAK8YwGgHIcvPfVDipjdmv6LnczVVd3gHhXk7Nn3Up5zReWLQ6oJkiUsFK9LpCBOKokSpH0XwOrVSypNZJivW1lOSanDBkjLDPZqsCskAmWdaMwM2WQhpYXTYntS19HGhvLy8LiPAgZeEawyCFhiUTyOnrEKp6rJbJ8eV5PBWR7wiGW4SBRXVAXZmTWlW6+viCgOEYJHDTXWYtYu5lp9XHpgyDXLiym+ZYrQFh5mXsQz4gscmieYFSE5BaIQvLD2wESYwG1o+a5xDGea04wt0kINCJxmxAxyhq7qjgkor9QzKP7N+SIYbhpn9Utr31wmZ+KqUzOYn5sO5VfzwFJJaD/JlwTa5Pyav5XA0dG3oS42CZm7oKSa5OeJVGFSOWIReu5vBBOoWuOBq8xH7gmadEfW9sB4ZvaYJezhYmJ7GvmV7EyC03pnlY04aNXnECZR7LY13axuQlFgSrcCEKXjT7r42VGA+Yt8n4pDSALIRc9do/y/ZBCrerhd8VACdKl3MOjbENwvW5VFrvq7lpWvJB05Kd9bTgB40fZO1ZApsastDwRQwQJ5JNJrZVbp66opMWJIVapTJnhzGnQe3J0HhSNE79vadT27Pp+gLm76Rp12ck0UI7fTBcWdbApxUZG4OgO8X2YI6NPYEyTZF0VCO5Sxex7WIqlRpl2nYjf9RT4+4celV3JScdLxIFSm80IvlalF3MlDPTAheD61+LxJywWE4vOqNa18sg6eltMXEP4OJxHqD+eJwzr2ibGfVR7+bUuD8dbmd3tapH9YTlLggAbMG5jFJRY9dUS7LKBSzVLKQARKsXwXjG+cI4n5dLFU2zmCOq2bUnp1ZPlSFgKz6F0iuqmuUsVtWh7yLlD4iOXxmxMgVtyngw7UjiZutqeZDxZIKc2Oq0uFX0VMqLzajDhtIuSKhL16Xxl0Md14ca88nCFDu/8Su3jMMTAbniT/qO00+smEPEJLPc8eT5WyQNCRdMt5TethHulFsfMkHxbACaQWmi5yTIpDiJwXTj04KUvPwz4+j7CeONysnQcCn7VOlI4okI0TnNIyQmS36vjxyCoHMch+E5eV60N6iT8wkcEXDT1ySMOzEJ+3Rqh9z7gmzNfGJsbx5hPKXf1IXM7z0ZUpAxMEBDe+wlCOHKAioAUXyxNUYjJCGMtx9VujzxDtAiA0g3pS2OMX2CBHlyqPZcRICcgFOgQYkHrhNnZOz81ss5WUfFlcggd97eMUFgsQTCecbUFfvI0uOsuu4QgCbpU6t9eSHBbrfixUUrbzAiS4Dk5EnkMZZ2ZNy2N2k4FR42OqPWjL4XpGxwe/3ZUXnrCOPK3XSnJTIIulKJHTAvteUjXofFYBVKpQSSyq+Bv1G0Kg+J260fyJdBIvpiB8yLz8q3pHurHDVNQ2oPtgdrxWZZEj1r4imU4QY9Aqm4tH3Q1Rhhws1lrzzeROBhAcgC4aEZLp1b7idRNIseFYRVNRqvNDykbpuckdiwXFpCC4hrdOYjN9EgOnaK7iQDc9TxviZtw6Yf9R7X0Z0YyCRcmUwf19IAhG/N2WL074ywMQhap2O9NoKyTXmytGAYKhbt7Jvn8FgwBfQ9ymBfyRX0moT/cHIUz210AiLICFtfiaQZh2G9CEYQ7FcNADAM0kZT2vNczhI5zqKP8qWsbFx2Oe0pPaJadFo/X0KLYAf4Fo+awxsWCY/MDr8G4WnXEMKQkjluSvMOdtSzCC/+8K6Jzw+dgzlPNZdRESFsGYNXfZjHRsfb+0nkev+IVAClIHXO8vcWo88sRVIfI39rx4HzvE1GHQkiSWnwwCrB2pbwN/ujWs1+Erm+UG1vijtcxMwFSPsX04MxYEgjXC2v+Uo/PtYx49y+hCMjhZr//YscL7LbdjSdDI82J5Hary0K1v5eXnqYV3WTJbIklv3lJidRl5s7s1bn71TPskxrDxgRwlm4XzLizUlUug+X4yQCVuV3eSRe7KNS+6+LWPmiKINwr+2B6a6qx7LKTpFCufCBTbwg3J5Ep5TmeCQSdu7Y2FT1fynVQOpfi7C4w6KsDfGHpCNss6KtnxBvjiWHhebfmuow3Oaqc2lFsxAdkYYyxLvXpQdmbOyj9vQa0gxQybspRrmfJ1dykuoA+vbasoQ3NkCkPot+Q+yqI0+9sAC30vTEORZhUuqYwNecBm+85xmyxOS6UR3JEa7slE9cy2Wqx0lW2ZiKSDirprGDcP3itjSEMM5nqkjny3jgHSmf2ygMATGscLNjAX97a+zSOooTwu2HjFRzNP/3mvgxdsLnSwj/1hY6DKV7nJoAaSh9+KgmmKN2T3vUwG1iTnzAdyGCxbQ1xfAbdPWzqLpeljs/MIpWQIizmiXJZi1bT+1IEAfDBTvq2jxgKSE8tbUWYcJeC6pfUdESO/aipHkfShYBWeVzSEqC63/KhQ5DvxqCg3WPk6C2eqN6OUI62X2vUcChmDP29izrtto50rjk/SY0kHSo8aqHCkdd4TEcT46EPKadmgVE+rN6NEB449K9KBbeCHeQbDdIRms8vQvz/uzlXaF6OKKhL+K90Ah4FtC2jooJhcTnj3meN7uhx1DqbHlTKUlw00McFTy1dBzGlo6wxsFICXCtKHlpEZ66mpt0c4chJZ/fkkGSL1WGoVuJ1/iV+Po0No9ta7mAYgqKirzus+rV1V02iqE6I/ualH5rTZsT1K71p+SvS+mf9Rg2tWiPYK9LSUKLOLneFw0QXlz7Km7SvTPaYyNcX0YFoKN5lZJFRFb5m6X6Iyi4bCwst3pTJSLS16JxVKR9qt+S3jrFEfFfpEAuvVYJf+poBZ+KyVOtIpK/1/bQuX7ciYZ+tZjS/4mq+vPUTQlAhlb5Fk+cQ84uXs4RpZ7mc+olpmLCi9MrES7NgOQ/0aOgwZNseR9rTB6FbAYj3ubIG4Oon4TemLHcnIKo7HKvHsNlPUuHT4N4ynPq1WZqNAYivHgatTsNbhdxIkHJoAIZS74VMpjzXN83rQm6Dz1O8GB5eIBsTXOiZAJiqfbnYodCxxhUgCgcIMeQQ++ObzehGQAbtHOCBV3hjwWCnkMv9TiJ1tQHkVJpPkwSVSrjNmiUkD6+PDVVNBD1l3WyIib8XitC4nGntvMogZCg7VBvxUG6ExrSPqX0lmaWSGr5tMBUU6AhxYHvHz6hJXZ9JC86acI4J4Qjb07moXmPGpXbOxXqJQjh7dNh+FkCNew3EIYDxe0SWnhdaP8kOvF53DFzjKVsD/WgjZd3spJAgJb+HIoqrRJUjBuwfVAV+3vlfoKh32yA4WeJ5DkenY3Me32IqWOLK9e/V9QeeNH6FAXg5u90ESdSWr6EFmzrnIbDn4enDid6DQQE6hhe+cYH2fb/3rN5HNl9iy84TXUYmmpTh7YjiOaz6rXOCTp+RloLafNW6NKLWe5ev0VSC5tYzQk0E5xzrP8eI96VnaS5sq15pF5RaU1xNPQhwk0GxlhSnCJCUPr2JgY46pv1tbBVZSDrEJ4qm+bNFRnO2btV+SnVH7DDb1onaa3mEERt6RLWCXVCXXRsWuYEPRFyQwyQW1PSmZD9h+24jET3QXL9i5bucAVXDC57/hTHp2KfGBkYZ1SmTuxK0rNrFaqmbc5C7YCNZPef9dDVuvebND52SPJdKBiCzJWICD8DBlpDbtTPaKoOKFhfcIyUiTCkmYkZg2OLXXT8HopDvBvEe2pUxQ4EXaAjq9mNU2H4WULw1YOSRLLrmoCwG86eP2FPStJC1sRNpTgusX94QRbN5zGUqaz9fwOGGgmVHxXvEbl35amtXdBCbAe7buIR7nhSmPC2t0cFaBCmouzvZa7kprRmCAHicCmGS4HwptWA7jRRPcAaZ1QbHfFY9mh0/x83PYBsbmKZCaI35KYDNBTjRU91iBQoFzR+m4WR9iHMIHRVXkBAo3i/Jp4EiZfXrTFfQG/Tfmcm6IIyWklWubD5jT7X+iygvSRq28G8Q3QntdC3c6OxqSMNvNnVc0wKVlJB6z6GFZwJ4PpVjoDTOkB4ZvWtApcJlUJCFD58DtEw8Ei3m9Ak2GNfq40KR70134XQz2/W+nLfeY1rUMbnSYG53BfVAWM2u7W0G5JZ5RjG7oAJ9nsMbgJBGyfokOqgGZyOIMkuQNE/MyVeqCEXXOuwkz9lunA2tZT0RJmnXodSoKvWusWInkZaZQoWMyBR568b8qoCCDrwxBlOULVsKR5gq8r9qDsWr2CLkgh9pp15P7mrNBsBySpfsSX9GPqHmDZDQKQLm3xzqCOgMEoWqZF1fAjkAYgqx/ztPVIRRQi3n6xZgAQ076BwVLSFNe9ospv8QE9sSxqS8dwRP9Cr+V5d3k6LqamPW4lkX0503zHC3H2IvzAjhARpTZudCnV7cZLQAAwhgFp/nmQQ9x51FcJfp5ClJA6uoyKrvOOw9x3A9QdOhCZTChNe3OCuxpiqfvhOEBBhSLpMeS4W9qGTQ3Eej3Mnl3L645zxT5TRx0BCBllAoRme6PcqDiOIHelr/e/ptAYS5o905D/K40SeL216v/ZzSWHWbqcY4cobfNwlQoT7ahrkliNM5HFOSPC2/XGeM5U278+2Tj2EqaQ8U299Kfq4Gog0/Rbf5ZAbmCa6lYaZu8lL1xzfBeTEPpQsKsznj2xhrfTcTXGhpKjKyaHIc5lfahr1NSFCT/pZ5MQhPTvHA/QhvJRpeqt33eJj3N7MnirDXSfNbTgutF3fTRSEDFD/o+YeMWWPjaNfGGGbsLVWUIEM+lbLWYLLpAfC3+rEsmnkUpiQIHW5yNe9vZ5EsqKFslaatr8GNZdKeeqE3zu37zN1pym1Er2QqKfuB0pQEADGuC2YnmNxTtDjcU9/4U1ngoGeOIuuA604eselRTxLa+DPehhU7qcjSu6Fl28QNP0dlGEIqzqgynFgv080eL8DTX61Q3OhogkhXO1ZZCEgYQgNQNR/2fkk6J1HvxamnwBOf15UByQk2GOt55dgAGwfvHHfyRD5dr/xdhxWAhZnY8e+gnT7KVQAyEGbgxDgLykULL/iCiHkkO+xAvu5zwLBdjYvK+GCCFtY9M6lld0UxN4CURH4dO6mDszRVZxNqYDhyDzZjhM8iwrlGgA+NvhCDmIIPHQhZO1jB5UJEab5CXmOS1YezRNUCYa/PYC1p94vBaEBeuimt0VXcgjXz4I1Sm023MryIh4Fh2VOAE1TxU1O0yqBTjzSJ34gJ30R6ZKeZdzjPnA7akDiTmqxlhaaxGn7e2mTYBloPwk2AB8b4UzTQ4geJIjqi6gOWDFa7oxonQdwrR91vzQtVzlC+HkBN/85TE4QO8Q/+5zNIMF/OILtQsqGSKe6XpkTLLjXbhD0CGtN3/zVHSF8vwFJTROt3lm1aoimI7yg22vjUI0adsMAlfwtoJb4QHfsSdKdJyF1E8a4xHYmDmaZt3CDse3w891Pqzv76LTCZUKle9yr+V/VlblCVn7h6gBLDr/+TmE2yjtJePnUqBedknIhSBlsvlOFE4l+P4ASFPabYljwqM+80f/YaOVShyn/YyhfkQFCWoLNRz/wERsJJ0p840+Zp72yHNA5QBPWiPicOooTBFnhJ6QIaDIk07417oVTUsDND5PQEHXzlTeXxXJAUzH1coaRrE3Opyu5A4IjIC85QNe9xr1UKmevVV5nFuTpEj+ZSLfkP9CCHIssTzd/QefjSnQDyS+Z8mYHxCppRhTm8O+cRrOrB6xJOHYhPMT8RzhRburtJVsg6OWFvTnp7BC3Nu32ruSKA+znw9ct+LP3ur9L26ehrUTProM/98/aDKXL2dICF6R89UdvbdXvXX1D9VMTh0ibJUS3f3bU4Zl3DbOmHGHZxvLUN5WoDqgIFwBcN2nNqK+vp835vHZmVb9Mm3OQpf9ftcsoo4qs3pVOSolrYH0OtpmdynmZeVIfpL4Rqt2wytG6G5MT3PMQptL6n5o6WipyoMjQNFkI4c6g+/CyTqqxPceQfJ8blwpfSIqn3+BEpgaNnjD0PVtVEItL+yliRtBOcW/hxvsRzXmaTlR6K4klzXmY9GFMQghjNWUEpTp5m8+QdDTRfE69KGcmYlIGuPluUQNBf4qSxRzwxu2avsVdv4Lnllu69p0eYPxv661A08Csj9JqNkpq3vT/1CFN6Cwzc/j1nraRExxYdCasUQcaWmJmwMUCc5b3RJSe11CmY+u5bR61YXrD/1dNJcMliT1a2tIlxuP23BS7uZ1/Us92CBOHWE1VIDq+ohLHHZgN4LbMtlXOvJRpFlMe55IqFJlHhkoJaXkXMNVEm78xqA5YX8cT6HXIlnXw8e/C9fVpZeY2HjtUcE2U2CyQ+I9f/JO2Gq+hs9YrnlidPJAWhfvNMDwPbx3LRQPIhc1zhGFG6oXHafVPhqs+M+9TDz7cE9/rLgkNPXyy4rbP42vukt+AZ+YwxKsZ2bMHf9aiMTTpd2HyPmKphj+0WW7hrfnIMBInVsY/5AsN5NIgnon1UHdgxKxEFLLsBQMtXwdXw0QcL+6pXwcVIEof3vR+Z70I/DO4nod3x8hGaZD996o6HLezoKlud1/Y3CUJZ5lWGQxkfW500ZvQBLKg62IC6Ve+CRUgadIGMy90Ri3KMXx3W3nnUvxYUqx/0b+k8GKwHS5NgHutAnk4Dj2FxeU4ZmZxVcUnnAUs9KjoHN3OiZpaKdZ4s9i+byDZwIFR2XCtT6aouKOEYDu9OLu59dDD6oBlgReQcHPpW/177Yxga6YbpLi/AczW8TK2MsbV5yrmdl4iIyrHUwpD2zgsqLLl2lKMYPSNq+tADkDuTb63iZzFSoQEm/0Z5++gWC7+j9tDHKsYspEfOGKKh5xj/OkwXjMf2yp6jWFkhsTDKQ7HwdiGe8QbayqKd7iHG0xYaJKwmtNr3nFAOCeeU5OBtXErbyHBgxpcMA7OzFjIJEFfzo9ytmk9Deo2rvsNWr4FkEpB7DrnP30pPccJd2z7HfzZPaB1MDdu3oa7SvE81lxjqEtv5PxQhER1L+8trDNmVd2XnfbPRGezUagIGVBES78RdaxucsYdRV17/WnXpeREyKQ4Zu9R5Z9IHIFY6cdoVdrmcU6iVkS4PRcStJnWW36vK0TAdIP40lmrFFIjdm7uQH2p45okJvPwO4nfc0kSyxp1139+rts5wjmJTrPC9VnVAT2yEHLIYrToV2jQN6U6GbvrqasD0qKH/s1ylmD3Ep8OIOnLWhBAO4c2nb2UF00Shbadc64WF1BfxrHGG4hX/vE2S2l4e5YlDKO3Jwqr05GF84PcIiRFZCjkqdj28rb4XhERaHmQF+QPKvOKSnn+/LL9j1bMpAaW9YRAu7ybQR5kAJHfB44QydZwNcJnSDVRD2vCTabXuA6jHifhZ8XMdoeHUtC9DB/LKWV+YjTNXnfx4rmjH3XixENaLg42oKUiQ41YX0f1WFQ8FqcnQZP+jMCV4fdODKh6Qa8pISy3XSsx9fLPmn9zSlkxUx4Lc3c5M8t/dsF7vLUKrQ7I54168Qlusc/SMK1BCRDQYJZEaXlp0l9+W80Cy+pLie7ROicsm1PK+jyeeslxYugKRKx5MUOu9zcfeOXa93U3j/p0tk5YSMz8UnUfqIWme125htxKobmEawFOCB49nsMoo7b4B7MfkWJh12+5xaKaUf7/Xe9jDPHMBRQKtLkjn893NFNfDLzbBU6GEc7tUX/midJ5X5a1YQgmTca5bqUh8juXWdS6lsyGX8fCwnLF+uMv88S/UnRUx2d+zr2+zC1WB4gqR1cOJhcqVkv+r2xDuG13DZZaQI7QLgJe6dPZjlFckeNkeIDHdbHw5x6z8W+jFVkWHffLBmfIYdciB5BfbI3zm78v77mlfu+HtwoPhKApYJVfabIvEtWPeL9jQTaGMbAxhSaD7lqVod9dAUBw3Pglrz9d0qIYGwZBd7ZJTTyqvCroADgOETJZZKAs7waVrwMtmjYMw9GUb2IH4lHl/mIdxcJhrHaIunIyaNGNaEp9nxnn0V/RKTerhrFeLdpLElAXohqf1Z5lMTDGcub9IFTGfE+jg2cJaqDk9NBzeZwcKgbYix8g6hw1qTIUsqtt7yZ+r5mNkVGvxwc7aiEDgE/9SsXI9ykB17PYYIfNog+m1TaRl9zv8pca2Kqp6fccLscPdaiY4dw3zBsG1C4IuuUzpTaZ8MIvfBCHxdJqesz8RaXHdaF2yYcvxvuJl8sFJIZ4Rz7/8MIStYi1iripRk6+CK+hmFsyszx9fMANvtaE+ZXKwlhdqjhuqi+VTwqoLfIYbZzE8or9K0WpVmSCoPtxHBbLP5TCldZBWhEAsS9z1FysrxI/ylz5R6kmx3Qk4NJ1gP5UQGKbSXn1ZekWN4YjIEP+3b6DmJcgM0XOXj5YskSMRgBEOj250QsrMX1IM/Mx7rc0wj9lGQBiL1bl2DF+tM6CpFZEmJKZfVs+rYjYygAQbim5aVwPG6sFO70DxVz+9h6sOqAAMZMBAGJcy4wPP73sBUltijDTXrr4E6TznSCEBgAQ5RxZJI3OwdGjipzUul/WOxTnubJ3Nx/3fVZoqSILEc6sB3jvJgTlyOnmKcveqGlyRmrp7+Q69o/3pr7ErDdbodSqVDmG/hCgW0OArcwVwrAo3O/iCYod0q7UygjLqjxjN97x7z2HVn23/f4z1yrRUsFK+34i4QsNQPK2zyIL4SYLJfl+V30p0uapz0Vql6BMpPQzr6jbzkGmz165qm7Sfu532lAN+RWB6FEealEWQoBPaWL8n1r3aR29SOKckJHAD/JzHu9nXrutK7bZ7vG4qnpvVaMFTYZIxwvzDUevP4MWxNCfeonlG5pKii3MjjR+1D/0O7J4lnNGnBoyWx94sNfXIOS+GdsHHw8SFqU00TQ0a9WW9xc39aLDI3wLNHLYNMwP+7Ia4pm24vKZCTdw315MCGEk0/WUWu4/W23SN3m4/zGBm21mhvA4ZzGRE+uabFydONf66G4lXaC0UPno//321lxv49kbHIS1m0GTY/Es3zEaZbW0NzC3/IK9Dzb+9l5q01v8GG90gvqNbUWxUx7rj8c5/yIj1f/mAk/9kq+5vPXPekVdt9tz83g8cDwW9NqPdH+yP1O22z0ndMKYhN13pMtBX2/gePIjxUMc6jUcR4cCAEVYSUa6AAAARXhpZgAASUkqAAgAAAAGABIBAwABAAAAAQAAABoBBQABAAAAVgAAABsBBQABAAAAXgAAACgBAwABAAAAAgAAABMCAwABAAAAAQAAAGmHBAABAAAAZgAAAAAAAAA4YwAA6AMAADhjAADoAwAABgAAkAcABAAAADAyMTABkQcABAAAAAECAwAAoAcABAAAADAxMDABoAMAAQAAAP//AAACoAQAAQAAAMgAAAADoAQAAQAAAMAAAAAAAAAA" vertex="1" parent="77e6c97f196da883-6">
          <mxGeometry x="80" y="215" width="30" height="30" as="geometry" />
        </mxCell>
        <mxCell id="LKTtRaCDdOnd-94804fj-50" value="" style="shape=image;verticalLabelPosition=bottom;verticalAlign=top;imageAspect=0;image=data:image/png,iVBORw0KGgoAAAANSUhEUgAAAMgAAADICAIAAAAiOjnJAAAqwElEQVR42u19B3cUV7bu/UF3xmOD1F2hY1V1kgQGIZRDq9U5SSKDE07gDHg8jhjbYHvGNo7g6zjOEftigzGYnDOIoNCput7e51S3WniC35u5F9ZbW+ujV6tVXeGc7+z97X32OfzH6rtfU4UBjxj3yRmvOOgVs14pbQLe1/5KIPxm/AcRi0DEIhCxCEQsIhaBiEUgYhGIWEQsAhGLQMQiELGIWAQiFoGIRSBiEbEIRCwCEYtAxCJiEYhYBCIWgYhFxCIQsQhELAIRi4hFIGIRiFgEIhYRi0DEIhCxCEQsIhaBiEUgYhGIWEQsAhGLQMQiELGojQhELAIRi0DEIhCIWAQiFoGIRSAQsQhELAIRi0AgYhGIWAQiFoFAxCIQsQhELAKBiEUgYhGIWAQCEYtAxCIQsQgEIhaBiEUgYhEIRCwCEYtAxCIQiFgEIhaBiEUgELEIRCwCEYtAIGIRiFgEIhaBQMQiELEIRCwCgYhFIGIR/lUka95UcUX/ptiHKfMT8/NMzXeJWIR/jsyvCFTDrSn9TsQi/HOLlZ7Kp6kkm+RWklwh4f+BWIM1NEpN/bBKrAQRi/CbcSWr4l45hgAm8c9FLqriDAnzK0Qswj+xWBVi+W1AoLjfEZnpiStCr0ca0MQ4sMovDyMHkFKcWykiFuE3EiurWhM+Oemo6/jhq/1H95z68sMfZmght7W30Zl1TY/5pFqjlSRiEX4jsTJeOaEKwSfXbDTgp2gYJeODTV/MUCOKdaDGRHGZ9f85sSox8N/TDUSd304sKdXgTAWcwQO7jpfzhlFg3DKMx1e/AmzzCEnVkq7hVrKSibhGiZWsiTUS5lD4dbLuH309/jcOM8PmwV8dn6rBb7+9NLuxVCUySv8bA+9rg1gZ3pVuS6ilMXHh9KVSsawX4Z9eGC9+++kOTez1iMmpBEheC1GhaVc8YtojpN3WtE+GU2U8QiYAb4SkJkR9GIOEfTawuv2qNOASQm4h5LXHvfakIoDjz6iWlFeAe0g12LJKfRQ0pmaFu4qrQr99WrdiCbKTpBVL3BxJjFh+adBjTTfYh111MT8IBWu/IgYd9d1wck2Kgiz1OfBgzQp2PhOwDcEl/HJWs8ZAVTjq+722hCKE4dUjxxRrBC6niRFNiAXkdEDOeqxJHzyRmIIHmUprbCufmAXA1RvtQx4hoQkJ6Bu/La2KCVVKalJcEeHm4wF7xgdnsOJfq8MJTguAR4DmgvM3Oofgrxo7CTSF3wYDJgmfQL8gbEmfjKTHVxv0CDo1UEt+W/bXAxg+hD8F7IMeAVpyEGQTPLtPgLsdVK1xtzU00L308kjB0I1iEayWbpSNXdsPqHIf3LZHyFbCQxxg2rVBrDh7cmjEQY80hDrRAs2R1iwxvxz1Sv03egci3YuWDq98cMXahx/Y8PADL9y8aHVny7BfHVDlkEeKNdihnzJ+KaPWx/1Syg+taQ/3ty9a99hr77z+9TOPvTkcu3uGmlCsYeg8TcAWhP5mXxnULMlG56DT2rtw8J7HH/nzu5u//PNz7wdbl6li2F4H6iHtl4FSWff0OBzfaIemH3DVdzdqkbbZQ8HOJV0t83rbFvW1LQq4Ql5bPwwAzRrVLImALQv3Ax2PzyVnpoZXnFj4qgCnse+BRgMuS9Brj6pS2CUEFSnsc8RhIPmgcYREgwO61rSLjFh4Hs0Kwy/rro8rlliDA0K2FPSFao14pIgmgqzuVsQup7UDh4qlH4YW8kxKweN7xTSyR0xNJRaMT5NwPvhQgOGUYGMbrpKGdvM5Y50tmdxosVw2yuUSQC+VD+8/HlAGvLaMTxpkY8b0hpp0FTXWZP4jWbFYYBjmgf2Anm5wJBVrl9/Rs+mVT04ePlPOoUeHIQKaEV/By0/oRw+fXPfYm5rc5ZUHwE54hXSTY9hjjUHHP/34m3qBHVnGoQU/P367a6YaVSwDfjnNzEPKLyeBuwF7ymHpun/FWjweTl8owVcO7bnkqO+B4e6RB/22YQ3Mj5Sc4Ux7JDCZXc8+ueng3mOXLk6MjxZyo6X8uH7h3OihvSc2Pv/BbF8U4qaZyqC7HmwY9HSCjxnsxdrkNYO7LhqwpxVrnyb2hNqX3n/X+ntuX3ffXc89uHL9cGrljf6oNK3Fdn2Hz5aAg4FGSCYpWzW6Hmu2wT5fs8JQAealfbaofXqnKnYPx+9+86XPf/p+/87t+37ZvnfLl3tW3fOiz9brrOv02XAMg5GGloehOykqRDBO6VnaYrjtRhfo9KjfDgTt94gRHxrmqAYew9m/ZP4KtFPY/nqpVAB/eOTAyQYl7BbiJqsmiZW5usSqJm3T2PowOCypgD0LgQYMuMHk8pEzeXySksFf9TLjiFHSYbCUjVIJf9nx4/5g5yJFgFZIKfVJ6CpXfdcHm79mx+HAyucnDB2/+MqL/+WWesDNKZaoJoBvRSfrkUMPrFyLTaWXS+yMpRK2XP3vm/HGgOv2QVddOOCIuyzt89N3Xr5Q4gcD/0p6mXERNEdZL5TxJgvGHx/coDl6vfawR4x50SXFKnO0gxVmMFMBtAP7ZOsZTt++f/dp42/9jF0y3tv8TeusYVWM+sC/S9WhyBSnfUiTs+A0PfaIIvcmBm56Y+NHRom3ENyVUS4apbxhfqIbty9dDbSDB1fq48xzZSb1EPBMyjrrBvy2uLO+o3fu/FjvwlhoKbgFxdalyF0uqaNldhTHc6EIrcQslg5dcP70xdkN4GRTaNfN2DB1jRBr0np5rDiyNQGaqefZpzblx9F4lFnn5fNF6Esdh4tphUolDEv0Qkkv6hfOjnfOmadB68sZGL4BR2Q4eYfBiFiC1mXDi33RWHXv86rcr0kxTY5ptgGXtWvx8P0TY0iTchkukUfKlox9O8866jpV0GRimg3ipPX6WX9e/3YpB+cyigU4rFwsFnn345sya2d8xQP27znWNjvlc4Q1GbRabMrkPwgXsJRyDJy4U5z739/+Apcr5MvcHrNnxHMAyXXWefBhfkxffd8Gh6Vbk1nuEVkV88lRRYz6XSnr9c133/b40YOnkEk6jgqdtZj5o+ONlUo60qtoLBm+1y30gK0C5QT+farMTbjqe+Y0pb7/eufYxTwGfboxcnZs5/YDb7720eeffD96aULH8/PnxHsrFEpnT4603Qi8j4PBq8aPV90VZsxBUztbLifcUvfCoRXgmHQ21CD44JwwapqLfwAk4NasmC+OXig3uEIgogOOQZAUs7yx/buPMjVg8BFWxEDGOHfm0pwbky6xT7OFXWLH/MyKSvsXoQdLOnpcPW/MS68ELeW1JMFvauKAZut5c+PH+KcinpHZyyJr3+oNmQwr80+BGjmjvXnQ6xhQpYiPKRgPPmAWhbYcc0t97XMGz56+rBfhW+jddV2vnpATq2xwouPV4MOetnmKNOBFSZ5kSivhhXDB1vv5R9vw+ngM43XlZvK5Ir/hMjf4lfN4Hb3waCAuQRWB/GC+Igm+T5P6FmfvQdmgG3wEo/0uV5rdHOH8EjoSy8Dfz5+51NyUgmjDD8HNNUIsHt1UYxz2YRxEdG/H/Pwoezx8tAIbtdCPxoH9x1c/+NSCoeVrHlw7MWZUuxlGDhr9svHN5zuc1h4wy6o16rL0JiO3MtNdYj3NBy420r7dJ2f4gi5p7usvf5wfwwsVwGKUS+MTl7gce+vVTxS5D24GpLpmDbmEzjtv/SMSnfXaxMQE84RF3uIXL+S3/bDn2NGRqoEoc+tVNC6ezbU1D/mdUVddyG8HRxP1O4edlkiDkvS4ui9dQBWsA7OQkAXG/jIfCfh5iVOtiMTSkak/bNmlyr1+OQWE0KyDXmtWE+LP/GkT05vlYj6P9orZqmOHRuZll/d3D214ZmPFpmIQx933i8+9rQjdEOIodYkG1wI4oWrpl66fs/ZPL5dYqFcqgmvPA/QyqCh0fOweTGkFN8zu2RxSl0bGO5qHIDSenJa+6q6QU8qP8REfN+B0gk2eyA/f7WVjjA+1Mrc0H3/wvWpvt9W1Oi2dPlfIIczdtf14ucj7EhwJCvWJ8WI0uBRlpoxRj3h92xOPvMwICs1RYM2B5CgU9KrlKxY4C3A447UK+g9b9ss3tLjrByDU16wRiC67WjNMrJrtagos3di2dX84uFSYNtNubb3hd4HmmeEd2/Yxd6azk2Lj/7ztkFvs8NvBc6Ua7aDoowFXGkzyiaMXYcyXynm9lMP7Z6e9fHFs10/7d2zbu/eXg2MXc6b1YfYPcPbk5dZZg6oQATUDxPJJw6oQn9M0ePbkKD8AqH9w7/FbFz8i3DAHvLxb6p1+nf/cmfFcrsBas4DusFw+tO9EozvsFeIgqkA2wL25hc5XX3iPmT0jl5sAPsHBQKxJd1qoPrtprqrEyo2V+joWYeqHu9TJdMPVJBbY82RASHNigY8POKPdrfOKORCeuimmi9jj33y5zSm2qmK/KsQCtiF4dVuC0d6luTGuc0BC5XkXgGSxTUNa+OXhBgeomZ7jh86x0V8wzObAMcesIHuDMqzITCNqtpHTo13Nw6olNMM5rNThVRo9kX27j8JV9LJeFRZwyddf+civBDUpBEGTzwaRXRiMnGJv2f3zYeY1mIXEKxpPPbpRsfb6pYTHmvAKCZcA8vF1fgzqarR8Otjl/buPt8wIK1K7va6lQekd6F741Wc/cxmOAG7kjUz47oAjyQLMQaU+5cFseLLBPfDh5h++/mT3wvS9De4wTrCga4PIF2Rc95OPvsB9K3P0E3qpOHJmtGPWsFeIgoJsdGY9cnDp8MrCmM4spT7ZPoZx4sjFx9ZseOLhDaePj/IxCW1UNgc9G2Co/0o9bQs8ttgVFadXl1hJJBa+4q8eKaZYu158bjOOCrzvAnM36FMWz7/D5xzQIPSVMbbyCGlo3yY1dPTQKeYnsUUgAOSuqqUp2uCKq9aEuw70Vszn6NYn0AVAm5ZKuUIhVwQjAfIFzs/MGPRqPp8vs6zErUvWOOs7A2DYhaRPSvjsA7ctW8OkHvikIo5jpqbffu0zadpc1RqCCAuzlALc0qDfnnSLXdH+JRNjPGqAy4GLK586dr6lMaVZwwGUHdFZgRgTPAbLAxXgpZDTL52fmNMU99lCmhhudKZddUGPFJKub75j6R93fL9n5w8Hd209+PA9L7jqeiCS4OnNgG0Yo2BLxG9PSH9ohzHgqu9vcmKao8ExxJJnMcf09kcf3oB+HhsJXFsOGhZCgb7WhQ32FMshxxx1c4pjTEIxu473XERnuOHZzfXXzbBPb1fFLtv0ma++9D6asLJhCiwWQsGXcqPFYOcSIBb45UoQkLwmXKGZ7sNPYtbfzyyO8tAGRGsOHRxzKLHwPJ+9x4PSNaFaUpjEk2NzZiTOnjrPBRhXvSghSsZnf93mFLrgrjRLrAHTof2LMvcUJrgmLaJo4woJFBp0qT4pt/+y/h2X0KUKoYAt2SBDn/U7rG0Xz6P+YeIazBs4CB2I0qCxVIUt5hGifnxYePYhn5Tx22KK3Hlgz9FCrlRm0RO6D90YTNyugV4W047p3e9u2sLDDnPol5D0ax99TRH6PFIUOsbDxhtoc58Uxzxnfa9i6YN4zSOG/bYMy+NneG7Th2aJJzkTHhEz5oolCtGGaglDwAE09do6H//TBpReoLJ05nNBj+tGKrQMHtOLyf3+x9mkMnPfJXxA5uLefO1Tl9QDLA/Y06oVHhbC264fvzuIzYjmHYWHzlIzE5eLwY7FbmGAVdRMTm1p19JcYbRzdtZUFcakK4F2f+rJ5+X6WZq9XxHDbjEG48Nh6VkwuDI3Xqr4/rKp9EsgXU/P8MYVIeaXMtBDEDp5IXT64EcuRLipr2ZOeQYZLnj25IVZgbjHFuGFHz6cJAndcfOfDGY9zXZn9v+BFc/CnxgJ4pXpS+SWB1OOcZfY+wbEj+WKPGL3/8Jzm1wWGBiRBlf/4X3HKsEkuxPdyI0adksrUKGm/DLpYdDkFADT5eyNJqUh2mKvGVXK+iVg86BaD6YOg0SfnNCEiFsIKVLQ5wh2NmfD3fNzo2WWgMBRVdVGIO3BO8MjqGLvzm1HmPiEPxdxvJWM08dycl2LR4ZgtlpfBV41PNMfZglqLie4bgONhcSCHvHVzCpeO3ksNKHQsvffsY6HthDFlJi/ZyFJGdTPR+9/0zEnBcbZVj/XLc9d88D6C+cmzMQfWqA8C85RCp09dbGjeZ5tehBMiIclVzSx3+/suXhmgmmNIpuX13lEBkKV0+0v69+FiFKTzUllaFPF2rP1252ogszEqc4Nm1vsRAdkg25OsOOT1TycJmBurJJu5WkO7MjdO47bp7V55XDrjPTI2cvVHAXPx0KYZpveWak2mZxr8/yN6fDJ2XcPWqysD2ecYPBENKkXIju/u+++u57+4uNtB/YcO3dqDJxXMQeGucizLaxhcXrh4Yee8coh6LvmQPLY4TNcLxlcghSM4dTdKmhHGUdXtb5KkxMOS+drL31QGTA8aEXxbhJLrlbBZ64pYiXALN93x9OsS4rMLPMgGULeghkZMSV7/MilaupIR11VYCEh+in0L7px5OApCC29trhfxqlAdx1OBbos3avvW8e+hIlC7gFZG3E1atiF2V57TKuMOSBWo3vg0L5jPAFk5swM4+TRcct1zQ2OLEgZD1qRWmIBUorU39sxWJs9B707erFs+d0sny0SbFuUHze1YDVnFetf5nPEJxdRsdrfypmTf7/cI4nVm7aYy9LV0pScl7zjh+/2VaI4PlFRLuTAd5eZhdbZFZnFKht/XLXeWd8Nrrx1RmbkzGW9NGnIwXK3zEj7HOhbfWLNtaS0IoXmpe/kd175uYJY1Wm6xLVALHOOAuzKxg3MiaCsLVa0UymfG2fam8U2RTZtYsoXlvfDaZU8EouNIKDZ9q2H5Lo2vy2pgcjFNCAE52mXEIoGb8qP13rAMkvJmNlXqW4mZskl/iAZIFaTEj607zgndDXJfmjfiDy9nU9jM5eUriWWaon53fFQ9wKekijXpFCFP8wGYvW1LYSeKFcyQvAEl0fG22ZloWNY2jM9Sawp9SepSjI5ZZacM/fkdcTEaXMXDd974sh5JhqZP2O3ms+zkVPGqJNlfYu1aYKHH1oHThBkIqh4EEnmPBmbhd3z8wFF7nFZIujZa+Z8wAWDN+zrnJ8b17mQ+IfEil0LGsscFoo1+AQISZbh5RaLKxtuoiGY04s1dqAmI2ww/ct/BeN/1y1PelCvpAK2LKstGQJl7bZG+ruWjF0qml8w4xps0VwOs+03/M4LAkszlXgWLVaFWCwlxePw8vnTResf5rCp5YwmTiWWBJFaxl7XG+tfWvV0euWmIcRDYrUuzI3qlbl0c66tdVYGs/NypqZjTGL5sHezJoTByvsU6Hofpu+7V9+7lmfjIJTDAJqxqlgA92dOsJYK6O6ZTuCjEW9mzYNPu63dqhAc6FwCQWJFRGIzfvnJTy4MI7JeIVsJqtCKo6qTo/1di3MTxcrkR3mKxppCrOQ1QixUFaoYWnnrk5U7LpXNvkEqwAuMyFf+vHnJgnvCvfPnZ+9cff+zDz+4/q3XPv/wnS1/ffe7dzd//cmHWx9Z9UIytNxV38dym+kGVkGFiQB52GNLDvQszY1Vqx14Kxf5DB9cqLs1y+YQU9xiQcQUcIX2/3IYLJpeKpqZGza0669rDNjBHCZriJViDM40ODK2+u47b3ukmkrlHu/EkUsQ+Qccyb5WdIU4c8fTRbpx7vTFOTOS4LgrFmuw2jFMmCfwESwQJGYD8jBm2+tZf0Ob28KZxG3FAsvWGjxlb84Svr7xg0T0ptjA4p9/PFAjiYyqAV3z0FoNLJZ9INi2ACwWGM583kyHbvzLh6o8oGE9XJVYaU4svyvV3pzJTZSYPDXnjuBxuubOYwnS1DVILLT2EDTFe29h6U6dJ64LhQKz6vj6yKrn7NYWt9jrdyUg8FHlEAwslxiUprU5hS6ntVOa3uq09Pjtcay4sqZx9l5A8R6wD+Nkvi30wIqneE9zzVG1WFxB//W9b91yZ8CZUuoTfnnIL6ecdZ1bv92D8UBlBoPLrExsuUcagMDeK2e0qsVFI5dVhbDHMbB+3VtGJbuGX9GNn344bJ/eqYmRlsbMyNlRFHosYgf5df4MEksRwlNHfByJJUPQh9k+4LFfSrjron55MCANq/VgsZK2G1oP7T/Jsi06y4PgvY1dLvzxofViXYtiC2ly0Glp3vHjfl4DUq6ZaV3z0FNALFXsi/Qsm7isl82Jzjyc7ZefDrilPniugG34CmKpMlj9RblxNIuVYYNTOt2t86e48quvsaYW+HrEqNvaZs53QlOhnSjxEobTJy86hNk4bWyNKgL6e4+cdVvjCks9gKgEnmk2iNSw5A0neoUsG3CYSlUtURATHmeXYUrYyfwyt1j4rlgG+RXuXeixm5V9miXulQfW3Pci8yzFqmAFjr3/9hbQyw0OuI3kFcTSxDCwfOuWXcV8JV3LHufJR/+iYlVPYrY/dezQmUp1AA6gC2cvd7fOU8SImZGaFO8pHCFi2HZDG4R71t/P8towxwG8h2BQFWAQLudJAjZIsFgYnu7dzZ+7pHaQ3hq6y0yjK5YIL8OZ+rJRW/Kw5kGwWD3QLB2zBiFKRfKz6RpomO1b97mELo8tpVpSvpqiJrDl0MK9HfPAYtWGtOdOX5h7I3fl16LG4g2acNS1bflqB6tzYg3GBEqxqB8+eEacPkuVol7boCYNA7GQXraE35l0WHoUudtuaVNxmVvUrIADWwXBvwUrlf32mCK0ff35NhSyPF9sTkqUqlPGvPt3/XQQeiXgyCj1yQZbBlzzTF+0mlfjk8FgYy6cudzsj3mkkEdO1MRurLbTFr0xED959ByXidzCwXWi/UvAXLnrobn7d247xEZOJSgslHvbwZVgeWfN4hYgVsIrRzpnZ/VxPGzvjmPzU7c3+5MeKQwj0FnXve5Pb5mhMZ86Zrzxu1saXVG4kFccxlSqHO9qHZwYL4LzNYuJTWI9rYl9wNrmQOLY4bOVUhE0XUcOnmzyhDUp6jFnRMx1A0AscJGp6C18ZPK0BXwBgsrmpkRlSid9TcwVVm+iOlI1Mbj8plWsoI9XN5nVZPAz7T8DijQAHamK6YBrSJPBVoWt189Khm95b/M3YMCff/ItR10nBIN+GziRrMcKAw6EQhSsy0MrniijmC1XUgxlc4Cy7A6zWHku/9/dtMWPfZzw4OxsQprW+tH73/GmZESBQ0sgu19Y94YqdQLRNbm6hgJziX57OJu4DQ4o5PIs/YHy5fSJ89D0cIDfNqgI/S8++w6rucjzXBf8rFj+KLh4TYjW5LGAWHF5+tzXX/4Ip7WKLEmiG6eOjty+7DFF6tHk/s2vf8t1Fc8glNCsGtN/5/bI/RCpqBZcQOCzxyN9i5nF4gPJ9OlrHlyHuT0InKXgjh8P6yUzgikUC5fOj7U3ZzU5jMk8sRqBwhCK2y1dzzz1GlbYIotLXK6cPTUy98a034E1F7XG4mqnG6pr/tnxPjne3JgYOT1aLldjMZwFhGe+7+6nofVBJLqFsCqF7Zb2Gb6BN1/9uJq2wfa6989uS59mjTc4spoFyRFwxVOh28xQupLAqE0ysUiIVyRjcrUwUR5OrFBBw1miDfYUXGige1l+tFy5H6NUNKtlVt2zTrP1wQEeCPvB1cphReiBLsmPG/lciVEnxy3KW6996hI72aqKlCYNdLZkeTbfNJQlY8/PJx2WVr8DrGDcTC7IYNtCve3z+dMx21fCPG2+fOTAac3erUjdr7/0BTczJV7XgkVdRrAjrcndmh28P3RtzGHteG7dRl5wYZh1VHjV1Q88rYr9EOLYp3c/++TmSjGZWWwK9gw0qyaFfSypgQ8oRxS5X7W1nzk+ys7Gk3+o644cOAEWzm2NAo9rl39d9TxWplpzDWcAfQou5i/Pvl2hAtMhCBj3l/xqF/BJkXrFac3DqTvPnBoxWMEkj9fgmJ+27ndZutnqlJRqjXntsTlNqbMnJ9AJlspAHVapjOc+e3rsxRfeePWlt8GNYFa1OqWaK0D8PNC5DEJx1qZRxdr9zac7DFbxxQocsHaKFUoZX326IxW53W5pnXZd06zG6Pqn37p8MV+dzMFzlowL5/IeZ2fAEdGEFKvL6Jenzdr50yGWxUAvz4fEQ/euc4ldWMcHIt0S8trCbqF923/v5hEDymqmDEuF8s9bD4ES9dlDf7zvJX6hUjUs1LFK2+vqcotdENm4pe6bl66qJOFYGYeu89puCBvtdd1+O85BqWKXkee2s5SDMaQbMLpuv+kRu7UdGqHRlYBIRYUhZO98b9OXLJVYnQdDGXl47/EZaiRgH5y6O0jiqi5YrU2QimyZh5QJOBL26c3HD4yA2S4VuLIucOsyMVZ+dt0rD93/1F8/+JrrVtYtOHVaLOWAIru273XWd/ltWGXb4Eh6HD37957i8/aYOYVxVsKipS8/2eEU5sr1LYo49y5WwQfH5HDemKUWJ8pnjl5qbUp6xFCjK+WzR63XNZ4/OVoto6ikKir198aVda0sN5bHQvickehfomIpcFy1wgkhRAVrFJyXXA5MLRXNklGwcJdGxgaTywNKUJF7mryRjtmp9976rBKH8ilFc+J0xa1PAKsUa3Cg4xZegc50NM465LEC0fhp296hzC2p+M333/sYTish7XBmgifV2Ht9YsywWyBKhVgnArHh889sMqcxMOMFRMbHeP+tL4biy2f7Yx2zM70d2Y/e/xqTC7liZdqUFXwXjd3b9znqWzQhhgtWJ1fZJ2t2z/rfINbf2m/JTCWncJWOmIZHnaklOmalJi4XYKCaK42MPHsSo5DXuZznhZdlLJHLs2C7CELkm893g4XXhDiE/U2u6I/f7WGdgSscypidxyoVUNZeR3eDC+L5cMAeUYSOdU9u1FkJbh5iOZa0BEtz8tClBlefqz4ID+h3hDub0+OXCryaFS0W9leRFSex7qg4WFQqvPiTJRFXrVzntgLRTXvMSoGxsC7gCh7ecwZL1JkKRqkH6iZXArfyy8/7D+w9OXo5x6aScFIhlxurnv+Zp15VxR7Q7w2OlO2G9oN7T2OGj3OdTWqVsBCIu+yKHsda0BxAxwQHnJDVjBjG/PQDHlxzBuIvOtMfPXfqMtcevJTI9Pi6MXJmbOTMqMEqwFmpo84SJZVJaN048MvhBncQF36aRXVck/1LK5b/vcRiUbQ1CfLIVd8fcITAGqOfQg2RZ0Vq+fHxUW4MzLIT9E8FNEXlEndAoa5bPVhAEm9wxm5buAZXqugYD0HjFosTPHNx86JVirXPI8YCdrh6DOTUnMb4udOXGLdwhBcKBVR1uvHRO983uuJYGyNFXJbO2Y3RE0cuccYU8jlmQPg6cxZlFE0DVszjiS6P5BcMrlSsPX6sOEiCE9SsuCWLJiTc9SG/LdzVnC2Monxk9TM642iZFSRWi9+5WeSFB2hH39n0pWbr8UoRbKK6CISZmdgdxQm2FAe9c7FYmuAjkFc1m8YMs1N5g+V5Waa3xDhhvPHS1/a6oNcG4XPCLQZX3voE0xXMQGKrFvl0kGEu7MCEBFtCwhM0LLHMymjPnbjQNhOirkjNxg2pSqb3qhFrsLLO3YzYMXci4WJciMjc1u5k5ObceLGSi9erFTKTeW0mLvi6qxXL1zosfT45BWZZvn7u9u/3A1dKbJUOq/1F27V1y277tLkN9oTHkvTDpa24JhjCqFuXranOrZohW9m4cGa048Z5YB5UzF7G4U2TJ/ricxX9xz2sUarGZbwj0Ils+rJjVtYrh3yg9qypRvuwuy7e6FgIzoItMEz6QA5LwVjf0vw4lqkwPvG5SzZ/qJvF78h05pVOHBkZTt/ltHb4bdjUmjXNqopjPnv/6nueZdUgBh8MMCxMd/2rnzLbxgPHIytJfePlryHyUFkVlypEVGvvvcufwrqtvJnKNyqOApnK07klnS8eQlIx2YorQUbL4c5lmpmHq9nX76q6wsGab00tE8Bld3FFCs3wxt7d9M3I2VHeZ+ZqVX2ysU4dG/lhy4Fw981uS5CtA4aWSsvTWk4dGeX5MHNaEd7njFjvMp8cxTlE65BPmA+Azg7Yk/INzf8FmqbEBTUrL8lDmxmR7pt8csRvM28Pzm+b3tE1d/5Xn+48fvj0+OXixHhxYqyYG8UFq0cOnPz2sx3RniW2aXMDEOJZK9tE4T4t6coq4WrTYy3UQM/irVv28lVuV/7oxvkzl/fsPHLPHWudQrtmCylSZKqlTwdscdsNbZnwHbu3Hbxw6vL4pRJEHqMXJo4fOv3VZztW3rk23LW4p3V+b8eCcN+STz/YfuHsBBrZknHmxMUlw48wM1Mpy4HWtvbNS6w8cfBMKW+Gq1f8jF6agIDpwJ6ju3bs27l9L2DXT/uff/KDGUraIyQ91kytjfhfFu//YE/L5OQuJdWGcww660IBZ3RuU3p+6u5HHtjwzhtffPj2t++99eWjq9bfuvjBaO/SOQ1gcoKaxHbSwWkQHMqglz//YLuZZ2cNdPLIxQXZFZrU1+DAlZkeS9YnzGPz07gEChejSu2PPfxiZaknFiEXx8qR7ptVa4iZdzb5aJ+HK13FiCr1NqmRvtZFwY4lfa1Lgm1Lu5oXNKkDqtjtlcMBiB5EMCpDlRWhtdu/Jic3DpETLksf2MtIz7I7b16z+fUvPnzn+/ff3vLGyx/fc+fj0YGb2nGFT1ARguCLPVK8wTE0dSiyujEZozafva9j1lCoc1Ff2/xg28JZvpizvsMjD/hsUZxlkqLQPorQ235jJta7OBu5dbYPgsGQr1Lzw6a607iwTILW7osGlz6wcu1LG957+62vVj3w3MMPPT8vc2ewc0HnnOHmxqTP3adK3aAdAXAVV30ftCdbX3+l/7kGiHWF0ZqsQonjsj7cdACna5x13R6pX76h1WXpUoU+vw10UsJnS6rWKHhAFVfB84VySce0npaG7EsbPnr9pc8ff3jj3Btj4g2zfbYwRHnO6WGsIZZwtodV1OBuH6olEnAl7fWYG3vtpY/3/Xzk2P5TT6x+VRP70QmyyZaADTxasskxn2XIIj4b7rYAohW7Fne1wwQp8whJXPNuSf9q95VkzYY5/BnTWLpuzyB3bSH79E57XZciBZ3WHtUW9DiATGEvziUkcBGvNa3UJWs6D8mK+ylghjapWMNedNYQ9oOkC2titNEJp43jNg3Y60OY7LCnQS9quGp+wI+HxVmNBidWlnPLg+utY1572Da902ntcwhBN5bshhUxHHClvPYkTjbgF1kuXkhAAM7kYxq9vDQ0lVhXedfkzNT9LSenR+BPSl3EC3cvJQMymJmUX4ZPwk2ObAAr+DC3Du2lshpRpvqHPEIGlbJ9EHoLYjFVjDjq+yAyhzENLe5ne7A0ORfwnRTgSI88qOJ0NW4Tgkt6hAgmO6Z1euX+JncMAkwfFh3E3fUxFCLWRIM8rNRDg6bZVh9pXBwmxfwy21UGl1SkVAGrR1Rc5jqMDX3lfGhqSvsIOOnESv7jCsQr9iRb15oIuLMu64CGvgkHjGJJsr1uhl3T4zW1v3ytFU6xe3CCIc2XAmjWBFIEukNIsS32cKGHakVusV+xdhlX5kgpJtRY6bZJrCzb1gbZ5sGmSyrQXHJaEVIuC25i02Ab5rl1bHZLqrrZCdtihCW3pcF/16Zo/zqxfqWrzE94OWWywQ5kSkEbeaAVBODTUEDOKnVx/glYHegbnv2CocO2YzBHiWJJsH0N0do1OPhaAyAE7iik1qEtUcWMJmWc9XHwtj4s2RtULOBrcD8j4BAu5qwPN9jhPDHMmHMWitV9grK4cRJQGeu9kmgpRSw6gPvxi7jRA9/gRBH+4Q7prCcCbLYbGN/oyECnwqngc+Au5vPsg3z7IdwYB28+yc5c60+TCkS1QAWkCPBmSK1PNtrn+bHYJuYTcKmZxxprsMGvKQhTIF7xsg9VeGo56zetO94VYxXuMMMMf0IRknDzHnkIZJNfGkKbJCRddVHG2iTbpAk+T7FlAWbhK7Te5CT6lbt2Xysbr9UUek/us5PxsaUpfjnrYfP2HpENOGyX6rfS1X222OjMTN1LLV3ZdyTLPGbK/JW9wfrx6qlEbpAy1dfa2+PcZZ+n+fG+6oZb7IDJ4+XfEBOZN5/mD+U1n6u6XUe69upX3Am7ROUGxGqPpr1i5ZZQQadMTvNr4VXYFkVi+u+EbJPHeybvLc2LEH3VY8TaYnxzvRD9lycE+r90CEQsIhaBiEUgYhGIWEQsAhGLQMQiELGIWAQiFoGIRSBiEbEIRCwCEYtAxCJiEYhYBCIWgYhFxCIQsQhELAIRi4hFIGIRiFgEIha1EYGIRSBiEYhYBAIRi0DEIhCxCAQiFoGIRSBiEQhELAIRi0DEIhCIWAQiFoGIRSAQsQhELAIRi0AgYhGIWAQiFoFAxCIQsQhELAKBiEUgYhGIWAQCEYtAxCIQsQgEIhaBiEUgYhEIRCwCEYtAxCIQiFgEIhaBiEUgELEIRCwCEYtAIGIRiFgEIhaBQMQiELEIRCwCgYhF+F8iFtAoQ8Qi/E8Qi/8hyZCiBiL8TxCLGohAxCIQsQhELAKBiEUgYhGIWATC/zX+D5zPUGybDqqQAAAAAElFTkSuQmCC" vertex="1" parent="77e6c97f196da883-6">
          <mxGeometry x="75" y="112.5" width="40" height="35" as="geometry" />
        </mxCell>
        <mxCell id="77e6c97f196da883-7" value="Lane 6" style="swimlane;html=1;startSize=20;" parent="77e6c97f196da883-1" vertex="1">
          <mxGeometry x="830" y="20" width="245" height="500" as="geometry" />
        </mxCell>
        <mxCell id="LKTtRaCDdOnd-94804fj-7" style="edgeStyle=orthogonalEdgeStyle;rounded=0;orthogonalLoop=1;jettySize=auto;html=1;entryX=0;entryY=0.5;entryDx=0;entryDy=0;" edge="1" parent="77e6c97f196da883-1" source="77e6c97f196da883-8" target="LKTtRaCDdOnd-94804fj-5">
          <mxGeometry relative="1" as="geometry" />
        </mxCell>
        <mxCell id="LKTtRaCDdOnd-94804fj-45" style="edgeStyle=orthogonalEdgeStyle;rounded=0;orthogonalLoop=1;jettySize=auto;html=1;entryX=0.5;entryY=1;entryDx=0;entryDy=0;" edge="1" parent="77e6c97f196da883-1" source="LKTtRaCDdOnd-94804fj-23" target="LKTtRaCDdOnd-94804fj-5">
          <mxGeometry relative="1" as="geometry">
            <Array as="points">
              <mxPoint x="355" y="308" />
              <mxPoint x="240" y="308" />
            </Array>
          </mxGeometry>
        </mxCell>
        <mxCell id="LKTtRaCDdOnd-94804fj-46" value="NO" style="edgeLabel;html=1;align=center;verticalAlign=middle;resizable=0;points=[];" vertex="1" connectable="0" parent="LKTtRaCDdOnd-94804fj-45">
          <mxGeometry x="-0.564" y="-1" relative="1" as="geometry">
            <mxPoint as="offset" />
          </mxGeometry>
        </mxCell>
        <mxCell id="LKTtRaCDdOnd-94804fj-49" style="edgeStyle=orthogonalEdgeStyle;rounded=0;orthogonalLoop=1;jettySize=auto;html=1;entryX=0;entryY=0.5;entryDx=0;entryDy=0;" edge="1" parent="77e6c97f196da883-1" source="LKTtRaCDdOnd-94804fj-14" target="LKTtRaCDdOnd-94804fj-48">
          <mxGeometry relative="1" as="geometry" />
        </mxCell>
        <mxCell id="LKTtRaCDdOnd-94804fj-51" style="edgeStyle=orthogonalEdgeStyle;rounded=0;orthogonalLoop=1;jettySize=auto;html=1;entryX=0;entryY=0.5;entryDx=0;entryDy=0;" edge="1" parent="77e6c97f196da883-1" source="LKTtRaCDdOnd-94804fj-9" target="LKTtRaCDdOnd-94804fj-50">
          <mxGeometry relative="1" as="geometry" />
        </mxCell>
      </root>
    </mxGraphModel>
  </diagram>
</mxfile>
